<svg id="Layer_1" data-name="Layer 1" xmlns="http://www.w3.org/2000/svg" viewBox="0 0 516.65 407.21"><defs><style>.cls-1{fill:#009444;}.cls-2{fill:#8dc63f;}</style></defs><path class="cls-1" d="M287.45,491.6c-56.88-11.14-132.71-35.5-186.36-92.81A230.4,230.4,0,0,1,65.49,349a231.2,231.2,0,0,1-25.31-55.7C17.23,217.72,34.38,139.4,53.32,84.5c57,11.06,133.4,35.37,187.39,93a230.84,230.84,0,0,1,35.57,49.8c4,6.26,8.22,13.86,11.76,21A228.58,228.58,0,0,0,274.41,283C251.49,358.51,268.56,436.72,287.45,491.6Z" transform="translate(-29.17 -84.4)"/><path class="cls-2" d="M534.82,293.21a231.2,231.2,0,0,1-25.31,55.7,230.11,230.11,0,0,1-35.6,49.77C420.08,456.18,344,480.52,287,491.6a4.15,4.15,0,0,1-.56-.1c-18.89-54.88-36-133.09-13-208.58A229.13,229.13,0,0,1,287,248.21a220.49,220.49,0,0,1,11.68-21,230.84,230.84,0,0,1,35.57-49.8c54-57.65,130.4-82,187.39-93C540.62,139.3,557.77,217.62,534.82,293.21Z" transform="translate(-29.17 -84.4)"/></svg>